<svg width="40" height="9" viewBox="0 0 40 9" fill="none" xmlns="http://www.w3.org/2000/svg">
<path d="M0.0568182 9V0.272727H3.10795C3.71591 0.272727 4.21733 0.377841 4.61222 0.588068C5.0071 0.795454 5.30114 1.07528 5.49432 1.42756C5.6875 1.77699 5.78409 2.16477 5.78409 2.59091C5.78409 2.96591 5.71733 3.27557 5.58381 3.51989C5.45313 3.7642 5.27983 3.95739 5.06392 4.09943C4.85085 4.24148 4.61932 4.34659 4.36932 4.41477V4.5C4.63636 4.51705 4.90483 4.6108 5.17472 4.78125C5.4446 4.9517 5.67045 5.19602 5.85227 5.5142C6.03409 5.83239 6.125 6.22159 6.125 6.68182C6.125 7.11932 6.02557 7.51278 5.8267 7.86222C5.62784 8.21165 5.31392 8.48864 4.88494 8.69318C4.45597 8.89773 3.89773 9 3.21023 9H0.0568182ZM1.11364 8.0625H3.21023C3.90057 8.0625 4.39063 7.92898 4.6804 7.66193C4.97301 7.39205 5.11932 7.06534 5.11932 6.68182C5.11932 6.38636 5.04403 6.11364 4.89347 5.86364C4.7429 5.6108 4.52841 5.40909 4.25 5.25852C3.97159 5.10511 3.64205 5.02841 3.26136 5.02841H1.11364V8.0625ZM1.11364 4.10795H3.07386C3.39205 4.10795 3.67898 4.04545 3.93466 3.92045C4.19318 3.79545 4.39773 3.61932 4.5483 3.39205C4.7017 3.16477 4.77841 2.89773 4.77841 2.59091C4.77841 2.20739 4.64489 1.8821 4.37784 1.61506C4.1108 1.34517 3.6875 1.21023 3.10795 1.21023H1.11364V4.10795ZM7.86151 9V0.272727H10.8104C11.4922 0.272727 12.0518 0.389204 12.4893 0.622159C12.9268 0.852272 13.2507 1.16903 13.4609 1.57244C13.6712 1.97585 13.7763 2.43466 13.7763 2.94886C13.7763 3.46307 13.6712 3.91903 13.4609 4.31676C13.2507 4.71449 12.9283 5.02699 12.4936 5.25426C12.0589 5.47869 11.5036 5.59091 10.8274 5.59091H8.44105V4.63636H10.7933C11.2592 4.63636 11.6342 4.56818 11.9183 4.43182C12.2053 4.29545 12.4126 4.10227 12.5405 3.85227C12.6712 3.59943 12.7365 3.2983 12.7365 2.94886C12.7365 2.59943 12.6712 2.29403 12.5405 2.03267C12.4098 1.77131 12.201 1.5696 11.9141 1.42756C11.6271 1.28267 11.2479 1.21023 10.7763 1.21023H8.91832V9H7.86151ZM11.9695 5.07955L14.1172 9H12.8899L10.7763 5.07955H11.9695ZM15.8952 9H14.7873L17.9918 0.272727H19.0827L22.2873 9H21.1793L18.5714 1.65341H18.5032L15.8952 9ZM16.3043 5.59091H20.7702V6.52841H16.3043V5.59091ZM30.5671 0.272727V9H29.5444L24.7887 2.14773H24.7035V9H23.6467V0.272727H24.6694L29.4421 7.14205H29.5273V0.272727H30.5671ZM35.375 9H32.6818V0.272727H35.4943C36.3409 0.272727 37.0653 0.447443 37.6676 0.796875C38.2699 1.14347 38.7315 1.64205 39.0526 2.29261C39.3736 2.94034 39.5341 3.71591 39.5341 4.61932C39.5341 5.52841 39.3722 6.31108 39.0483 6.96733C38.7244 7.62074 38.2528 8.12358 37.6335 8.47585C37.0142 8.82528 36.2614 9 35.375 9ZM33.7386 8.0625H35.3068C36.0284 8.0625 36.6264 7.9233 37.1009 7.64489C37.5753 7.36648 37.929 6.97017 38.1619 6.45597C38.3949 5.94176 38.5114 5.32955 38.5114 4.61932C38.5114 3.91477 38.3963 3.30824 38.1662 2.79972C37.9361 2.28835 37.5923 1.89631 37.1349 1.62358C36.6776 1.34801 36.108 1.21023 35.4261 1.21023H33.7386V8.0625Z" fill="#0000FF"/>
</svg>
