<svg width="49" height="10" viewBox="0 0 49 10" fill="none" xmlns="http://www.w3.org/2000/svg">
<path d="M8.07955 3H7.02273C6.96023 2.69602 6.85085 2.42898 6.6946 2.19886C6.54119 1.96875 6.35369 1.77557 6.1321 1.61932C5.91335 1.46023 5.67045 1.34091 5.40341 1.26136C5.13636 1.18182 4.85795 1.14205 4.56818 1.14205C4.03977 1.14205 3.56108 1.27557 3.1321 1.54261C2.70597 1.80966 2.36648 2.20312 2.11364 2.72301C1.86364 3.2429 1.73864 3.88068 1.73864 4.63636C1.73864 5.39205 1.86364 6.02983 2.11364 6.54972C2.36648 7.0696 2.70597 7.46307 3.1321 7.73011C3.56108 7.99716 4.03977 8.13068 4.56818 8.13068C4.85795 8.13068 5.13636 8.09091 5.40341 8.01136C5.67045 7.93182 5.91335 7.81392 6.1321 7.65767C6.35369 7.49858 6.54119 7.30398 6.6946 7.07386C6.85085 6.84091 6.96023 6.57386 7.02273 6.27273H8.07955C8 6.71875 7.85511 7.1179 7.64489 7.47017C7.43466 7.82244 7.1733 8.12216 6.8608 8.36932C6.5483 8.61364 6.19744 8.79972 5.80824 8.92756C5.42188 9.0554 5.00852 9.11932 4.56818 9.11932C3.82386 9.11932 3.16193 8.9375 2.58239 8.57386C2.00284 8.21023 1.54688 7.69318 1.21449 7.02273C0.882102 6.35227 0.715909 5.55682 0.715909 4.63636C0.715909 3.71591 0.882102 2.92045 1.21449 2.25C1.54688 1.57955 2.00284 1.0625 2.58239 0.698864C3.16193 0.335227 3.82386 0.153409 4.56818 0.153409C5.00852 0.153409 5.42188 0.217329 5.80824 0.34517C6.19744 0.473011 6.5483 0.660511 6.8608 0.90767C7.1733 1.15199 7.43466 1.45028 7.64489 1.80256C7.85511 2.15199 8 2.55114 8.07955 3ZM17.1509 4.63636C17.1509 5.55682 16.9847 6.35227 16.6523 7.02273C16.32 7.69318 15.864 8.21023 15.2844 8.57386C14.7049 8.9375 14.043 9.11932 13.2987 9.11932C12.5543 9.11932 11.8924 8.9375 11.3129 8.57386C10.7333 8.21023 10.2773 7.69318 9.94496 7.02273C9.61257 6.35227 9.44638 5.55682 9.44638 4.63636C9.44638 3.71591 9.61257 2.92045 9.94496 2.25C10.2773 1.57955 10.7333 1.0625 11.3129 0.698864C11.8924 0.335227 12.5543 0.153409 13.2987 0.153409C14.043 0.153409 14.7049 0.335227 15.2844 0.698864C15.864 1.0625 16.32 1.57955 16.6523 2.25C16.9847 2.92045 17.1509 3.71591 17.1509 4.63636ZM16.1282 4.63636C16.1282 3.88068 16.0018 3.2429 15.7489 2.72301C15.4989 2.20312 15.1594 1.80966 14.7305 1.54261C14.3043 1.27557 13.8271 1.14205 13.2987 1.14205C12.7702 1.14205 12.2915 1.27557 11.8626 1.54261C11.4364 1.80966 11.0969 2.20312 10.8441 2.72301C10.5941 3.2429 10.4691 3.88068 10.4691 4.63636C10.4691 5.39205 10.5941 6.02983 10.8441 6.54972C11.0969 7.0696 11.4364 7.46307 11.8626 7.73011C12.2915 7.99716 12.7702 8.13068 13.2987 8.13068C13.8271 8.13068 14.3043 7.99716 14.7305 7.73011C15.1594 7.46307 15.4989 7.0696 15.7489 6.54972C16.0018 6.02983 16.1282 5.39205 16.1282 4.63636ZM24.6552 0.272727H25.712V6.05114C25.712 6.64773 25.5714 7.1804 25.2901 7.64915C25.0117 8.11506 24.6183 8.48295 24.1097 8.75284C23.6012 9.01989 23.0046 9.15341 22.32 9.15341C21.6353 9.15341 21.0387 9.01989 20.5302 8.75284C20.0217 8.48295 19.6268 8.11506 19.3455 7.64915C19.0671 7.1804 18.9279 6.64773 18.9279 6.05114V0.272727H19.9847V5.96591C19.9847 6.39205 20.0785 6.77131 20.266 7.10369C20.4535 7.43324 20.7205 7.69318 21.0671 7.88352C21.4165 8.07102 21.8342 8.16477 22.32 8.16477C22.8058 8.16477 23.2234 8.07102 23.5728 7.88352C23.9222 7.69318 24.1893 7.43324 24.3739 7.10369C24.5614 6.77131 24.6552 6.39205 24.6552 5.96591V0.272727ZM27.8224 9V0.272727H30.7713C31.4531 0.272727 32.0128 0.389204 32.4503 0.622159C32.8878 0.852272 33.2116 1.16903 33.4219 1.57244C33.6321 1.97585 33.7372 2.43466 33.7372 2.94886C33.7372 3.46307 33.6321 3.91903 33.4219 4.31676C33.2116 4.71449 32.8892 5.02699 32.4545 5.25426C32.0199 5.47869 31.4645 5.59091 30.7884 5.59091H28.402V4.63636H30.7543C31.2202 4.63636 31.5952 4.56818 31.8793 4.43182C32.1662 4.29545 32.3736 4.10227 32.5014 3.85227C32.6321 3.59943 32.6974 3.2983 32.6974 2.94886C32.6974 2.59943 32.6321 2.29403 32.5014 2.03267C32.3707 1.77131 32.1619 1.5696 31.875 1.42756C31.5881 1.28267 31.2088 1.21023 30.7372 1.21023H28.8793V9H27.8224ZM31.9304 5.07955L34.0781 9H32.8509L30.7372 5.07955H31.9304ZM40.271 2.45455C40.2198 2.02273 40.0124 1.6875 39.6488 1.44886C39.2852 1.21023 38.8391 1.09091 38.3107 1.09091C37.9244 1.09091 37.5863 1.15341 37.2965 1.27841C37.0096 1.40341 36.7852 1.57528 36.6232 1.79403C36.4641 2.01278 36.3846 2.26136 36.3846 2.53977C36.3846 2.77273 36.44 2.97301 36.5508 3.14062C36.6644 3.3054 36.8093 3.44318 36.9854 3.55398C37.1616 3.66193 37.3462 3.75142 37.5394 3.82244C37.7326 3.89062 37.9102 3.94602 38.0721 3.98864L38.9585 4.22727C39.1857 4.28693 39.4386 4.36932 39.717 4.47443C39.9982 4.57955 40.2667 4.72301 40.5224 4.90483C40.7809 5.08381 40.994 5.31392 41.1616 5.59517C41.3292 5.87642 41.413 6.22159 41.413 6.63068C41.413 7.10227 41.2894 7.52841 41.0423 7.90909C40.7979 8.28977 40.44 8.59233 39.9684 8.81676C39.4996 9.04119 38.93 9.15341 38.2596 9.15341C37.6346 9.15341 37.0934 9.05256 36.636 8.85085C36.1815 8.64915 35.8235 8.3679 35.5621 8.0071C35.3036 7.64631 35.1573 7.22727 35.1232 6.75H36.2141C36.2425 7.07955 36.3533 7.35227 36.5465 7.56818C36.7425 7.78125 36.9897 7.94034 37.288 8.04545C37.5891 8.14773 37.913 8.19886 38.2596 8.19886C38.663 8.19886 39.0252 8.13352 39.3462 8.00284C39.6673 7.86932 39.9215 7.68466 40.109 7.44886C40.2965 7.21023 40.3903 6.93182 40.3903 6.61364C40.3903 6.32386 40.3093 6.08807 40.1474 5.90625C39.9854 5.72443 39.7724 5.5767 39.5082 5.46307C39.244 5.34943 38.9585 5.25 38.6516 5.16477L37.5778 4.85795C36.896 4.66193 36.3562 4.3821 35.9585 4.01847C35.5607 3.65483 35.3619 3.17898 35.3619 2.59091C35.3619 2.10227 35.494 1.67614 35.7582 1.3125C36.0252 0.946023 36.3832 0.661932 36.832 0.460227C37.2837 0.255682 37.788 0.153409 38.3448 0.153409C38.9073 0.153409 39.4073 0.254261 39.8448 0.455966C40.2823 0.654829 40.6289 0.927556 40.8846 1.27415C41.1431 1.62074 41.2795 2.0142 41.2937 2.45455H40.271ZM43.1506 9V0.272727H48.4176V1.21023H44.2074V4.15909H48.1449V5.09659H44.2074V8.0625H48.4858V9H43.1506Z" fill="#0000FF"/>
</svg>
