<svg width="34" height="10" viewBox="0 0 34 10" fill="none" xmlns="http://www.w3.org/2000/svg">
<path d="M0.5625 9V0.272727H6.69886V2.18182H2.93182V3.68182H6.32386V5.59091H2.93182V9H0.5625ZM16.0249 4.63636C16.0249 5.60795 15.8359 6.42756 15.4581 7.09517C15.0803 7.75994 14.5703 8.2642 13.9283 8.60795C13.2862 8.94886 12.5703 9.11932 11.7805 9.11932C10.9851 9.11932 10.2663 8.94744 9.62429 8.60369C8.98509 8.2571 8.47656 7.75142 8.09872 7.08665C7.72372 6.41903 7.53622 5.60227 7.53622 4.63636C7.53622 3.66477 7.72372 2.84659 8.09872 2.18182C8.47656 1.5142 8.98509 1.00994 9.62429 0.669034C10.2663 0.325284 10.9851 0.153409 11.7805 0.153409C12.5703 0.153409 13.2862 0.325284 13.9283 0.669034C14.5703 1.00994 15.0803 1.5142 15.4581 2.18182C15.8359 2.84659 16.0249 3.66477 16.0249 4.63636ZM13.5874 4.63636C13.5874 4.11364 13.5178 3.6733 13.3786 3.31534C13.2422 2.95455 13.0391 2.68182 12.7692 2.49716C12.5021 2.30966 12.1726 2.21591 11.7805 2.21591C11.3885 2.21591 11.0575 2.30966 10.7876 2.49716C10.5206 2.68182 10.3175 2.95455 10.1783 3.31534C10.0419 3.6733 9.97372 4.11364 9.97372 4.63636C9.97372 5.15909 10.0419 5.60085 10.1783 5.96165C10.3175 6.3196 10.5206 6.59233 10.7876 6.77983C11.0575 6.96449 11.3885 7.05682 11.7805 7.05682C12.1726 7.05682 12.5021 6.96449 12.7692 6.77983C13.0391 6.59233 13.2422 6.3196 13.3786 5.96165C13.5178 5.60085 13.5874 5.15909 13.5874 4.63636ZM24.6722 0.272727V9H22.695L19.5415 4.41477H19.4904V9H17.1211V0.272727H19.1325L22.2347 4.84091H22.3029V0.272727H24.6722ZM25.5543 2.18182V0.272727H33.1396V2.18182H30.5146V9H28.1793V2.18182H25.5543Z" fill="#0000FF"/>
</svg>
