<svg width="50" height="33" viewBox="0 0 50 33" fill="none" xmlns="http://www.w3.org/2000/svg">
<path d="M5.26136 9H4.26136V10H5.26136V9ZM5.26136 0.272727V-0.727273H4.26136V0.272727H5.26136ZM9.43324 0.553977L9.89153 -0.334826L9.89153 -0.334826L9.43324 0.553977ZM10.2599 1.34233L9.38542 1.82736L9.38856 1.83294L10.2599 1.34233ZM10.375 3.46023L9.45192 3.07561L9.45192 3.07561L10.375 3.46023ZM9.89773 4.13778L10.5555 4.89102L10.5562 4.89036L9.89773 4.13778ZM9.18608 4.50426L8.94354 3.53412L8.18608 3.72348V4.50426H9.18608ZM9.18608 4.5554H8.18608V5.48277L9.11082 5.55256L9.18608 4.5554ZM10.0256 4.87074L9.43844 5.68026L9.44433 5.68447L10.0256 4.87074ZM10.6477 5.625L9.75009 6.0658L9.7533 6.07221L10.6477 5.625ZM10.5966 7.91761L9.72657 7.4246L9.72521 7.427L10.5966 7.91761ZM9.74006 8.71449L10.1873 9.60893L10.1926 9.60624L9.74006 8.71449ZM5.79403 8.50568H4.79403V9.50568H5.79403V8.50568ZM9.83807 8.01136L9.15784 7.27836L9.15491 7.28109L9.83807 8.01136ZM10.1108 5.75284L9.24884 6.25987L9.25256 6.2661L10.1108 5.75284ZM9.39915 5.06676L8.91004 5.93901L8.91629 5.94246L9.39915 5.06676ZM5.79403 4.81108V3.81108H4.79403V4.81108H5.79403ZM5.79403 4.32528H4.79403V5.32528H5.79403V4.32528ZM9.22443 4.08239L8.69775 3.23231L8.6936 3.23491L9.22443 4.08239ZM9.82102 3.4304L8.93031 2.97576L8.9266 2.98318L9.82102 3.4304ZM5.79403 0.767045V-0.232955H4.79403V0.767045H5.79403ZM6.26136 9V0.272727H4.26136V9H6.26136ZM5.26136 1.27273H8.09517V-0.727273H5.26136V1.27273ZM8.09517 1.27273C8.50916 1.27273 8.78826 1.34652 8.97495 1.44278L9.89153 -0.334826C9.35094 -0.613564 8.738 -0.727273 8.09517 -0.727273V1.27273ZM8.97495 1.44278C9.17379 1.54531 9.29947 1.67234 9.38544 1.82735L11.1344 0.85731C10.8454 0.336181 10.42 -0.062354 9.89153 -0.334826L8.97495 1.44278ZM9.38856 1.83294C9.48215 1.99916 9.54545 2.21849 9.54545 2.52273H11.5455C11.5455 1.92924 11.4184 1.36163 11.1313 0.85172L9.38856 1.83294ZM9.54545 2.52273C9.54545 2.76787 9.50601 2.94581 9.45192 3.07561L11.2981 3.84484C11.4713 3.42919 11.5455 2.98213 11.5455 2.52273H9.54545ZM9.45192 3.07561C9.39194 3.21957 9.31879 3.31559 9.23922 3.38521L10.5562 4.89036C10.8858 4.60203 11.1308 4.24634 11.2981 3.84484L9.45192 3.07561ZM9.23997 3.38455C9.16352 3.45131 9.07053 3.50237 8.94354 3.53412L9.42862 5.4744C9.84709 5.36979 10.2285 5.17653 10.5555 4.89102L9.23997 3.38455ZM8.18608 4.50426V4.5554H10.1861V4.50426H8.18608ZM9.11082 5.55256C9.21646 5.56053 9.32087 5.59496 9.43845 5.68024L10.6127 4.06123C10.2132 3.77151 9.75797 3.59572 9.26134 3.55823L9.11082 5.55256ZM9.44433 5.68447C9.55314 5.76219 9.65824 5.8787 9.75012 6.06579L11.5453 5.18421C11.3247 4.73494 11.015 4.3486 10.6068 4.057L9.44433 5.68447ZM9.7533 6.07221C9.83097 6.22755 9.88636 6.43991 9.88636 6.73722H11.8864C11.8864 6.18793 11.7827 5.65882 11.5422 5.17779L9.7533 6.07221ZM9.88636 6.73722C9.88636 7.0347 9.82334 7.25383 9.72657 7.4246L11.4666 8.41063C11.7562 7.89958 11.8864 7.33178 11.8864 6.73722H9.88636ZM9.72521 7.427C9.64145 7.57577 9.51044 7.70962 9.28753 7.82274L10.1926 9.60624C10.731 9.333 11.171 8.93559 11.468 8.40822L9.72521 7.427ZM9.29284 7.82006C9.08829 7.92234 8.78042 8 8.32528 8V10C8.99515 10 9.63046 9.88732 10.1873 9.60892L9.29284 7.82006ZM8.32528 8H5.26136V10H8.32528V8ZM5.79403 9.50568H8.32528V7.50568H5.79403V9.50568ZM8.32528 9.50568C9.14238 9.50568 9.9255 9.29893 10.5212 8.74164L9.15491 7.28109C9.04609 7.38289 8.82069 7.50568 8.32528 7.50568V9.50568ZM10.5183 8.74437C11.0934 8.21064 11.3707 7.5125 11.3707 6.73722H9.37074C9.37074 7.0017 9.29294 7.15299 9.15784 7.27836L10.5183 8.74437ZM11.3707 6.73722C11.3707 6.20595 11.243 5.69764 10.969 5.23958L9.25256 6.2661C9.32522 6.38759 9.37074 6.53552 9.37074 6.73722H11.3707ZM10.9727 5.24582C10.7082 4.79618 10.3378 4.44238 9.88201 4.19106L8.91629 5.94246C9.06847 6.02637 9.17245 6.12996 9.24886 6.25986L10.9727 5.24582ZM9.88825 4.19453C9.41381 3.92849 8.8883 3.81108 8.34233 3.81108V5.81108C8.5975 5.81108 8.77653 5.86412 8.91005 5.93899L9.88825 4.19453ZM8.34233 3.81108H5.79403V5.81108H8.34233V3.81108ZM4.79403 4.81108V8.50568H6.79403V4.81108H4.79403ZM5.79403 5.32528H8.27841V3.32528H5.79403V5.32528ZM8.27841 5.32528C8.79688 5.32528 9.30582 5.21138 9.75527 4.92986L8.6936 3.23491C8.626 3.27725 8.50425 3.32528 8.27841 3.32528V5.32528ZM9.7511 4.93245C10.1686 4.67377 10.4955 4.31756 10.7155 3.87761L8.9266 2.98318C8.87385 3.08869 8.80296 3.16714 8.69776 3.23232L9.7511 4.93245ZM10.7117 3.88502C10.9288 3.45972 11.0298 2.99936 11.0298 2.52273H9.02983C9.02983 2.71086 8.99167 2.85562 8.93034 2.97578L10.7117 3.88502ZM11.0298 2.52273C11.0298 1.75902 10.7832 1.04884 10.2122 0.511676L8.84182 1.96844C8.94124 2.06196 9.02983 2.20689 9.02983 2.52273H11.0298ZM10.2122 0.511676C9.63502 -0.031231 8.87933 -0.232955 8.09517 -0.232955V1.76705C8.54965 1.76705 8.74851 1.88066 8.84182 1.96844L10.2122 0.511676ZM8.09517 -0.232955H5.79403V1.76705H8.09517V-0.232955ZM4.79403 0.767045V4.32528H6.79403V0.767045H4.79403Z" fill="#0000FF"/>
<path d="M12.0568 9V0.272727H15.0057C15.6875 0.272727 16.2472 0.389204 16.6847 0.622159C17.1222 0.852272 17.446 1.16903 17.6562 1.57244C17.8665 1.97585 17.9716 2.43466 17.9716 2.94886C17.9716 3.46307 17.8665 3.91903 17.6562 4.31676C17.446 4.71449 17.1236 5.02699 16.6889 5.25426C16.2543 5.47869 15.6989 5.59091 15.0227 5.59091H12.6364V4.63636H14.9886C15.4545 4.63636 15.8295 4.56818 16.1136 4.43182C16.4006 4.29545 16.608 4.10227 16.7358 3.85227C16.8665 3.59943 16.9318 3.2983 16.9318 2.94886C16.9318 2.59943 16.8665 2.29403 16.7358 2.03267C16.6051 1.77131 16.3963 1.5696 16.1094 1.42756C15.8224 1.28267 15.4432 1.21023 14.9716 1.21023H13.1136V9H12.0568ZM16.1648 5.07955L18.3125 9H17.0852L14.9716 5.07955H16.1648ZM20.0906 9H18.9826L22.1871 0.272727H23.2781L26.4826 9H25.3746L22.7667 1.65341H22.6985L20.0906 9ZM20.4996 5.59091H24.9656V6.52841H20.4996V5.59091Z" fill="#0000FF"/>
<path d="M35.1136 0.272727V9H33.1364L29.983 4.41477H29.9318V9H27.5625V0.272727H29.5739L32.6761 4.84091H32.7443V0.272727H35.1136ZM39.5923 9H36.2344V0.272727H39.5582C40.456 0.272727 41.2315 0.447443 41.8849 0.796875C42.5412 1.14347 43.0469 1.64347 43.402 2.29688C43.7599 2.94744 43.9389 3.72727 43.9389 4.63636C43.9389 5.54545 43.7614 6.3267 43.4062 6.98011C43.0511 7.63068 42.5483 8.13068 41.8977 8.48011C41.2472 8.8267 40.4787 9 39.5923 9ZM38.6037 6.98864H39.5071C39.9389 6.98864 40.3068 6.91903 40.6108 6.77983C40.9176 6.64062 41.1506 6.40057 41.3097 6.05966C41.4716 5.71875 41.5526 5.24432 41.5526 4.63636C41.5526 4.02841 41.4702 3.55398 41.3054 3.21307C41.1435 2.87216 40.9048 2.6321 40.5895 2.4929C40.277 2.35369 39.8935 2.28409 39.4389 2.28409H38.6037V6.98864Z" fill="#0000FF"/>
<path d="M8.95881 21V12.2727H14.3707V13.4062H10.2756V16.0653H13.983V17.1946H10.2756V21H8.95881Z" fill="#0000FF"/>
<path d="M41.9659 25.4545C41.9205 24.9119 41.6989 24.473 41.3011 24.1378C40.9063 23.8026 40.3949 23.6349 39.767 23.6349C39.3438 23.6349 38.9673 23.7131 38.6378 23.8693C38.3082 24.0256 38.0497 24.2386 37.8622 24.5085C37.6747 24.7784 37.581 25.0881 37.581 25.4375C37.581 25.6619 37.6236 25.8651 37.7088 26.0469C37.7969 26.2259 37.9205 26.3864 38.0795 26.5284C38.2386 26.6676 38.4276 26.7898 38.6463 26.8949C38.8651 27 39.1065 27.0923 39.3707 27.1719L40.3253 27.4531C40.652 27.5526 40.9531 27.6676 41.2287 27.7983C41.5071 27.929 41.7486 28.0852 41.9531 28.267C42.1605 28.446 42.321 28.6562 42.4347 28.8977C42.5511 29.1392 42.6094 29.4176 42.6094 29.733C42.6094 30.1932 42.4901 30.6051 42.2514 30.9688C42.0156 31.3324 41.679 31.6193 41.2415 31.8295C40.8068 32.0369 40.294 32.1406 39.7031 32.1406C39.1406 32.1406 38.6506 32.0455 38.233 31.8551C37.8182 31.6648 37.4901 31.4006 37.2486 31.0625C37.0071 30.7216 36.8707 30.3295 36.8395 29.8864H37.3849C37.4134 30.2472 37.5284 30.5597 37.7301 30.8239C37.9347 31.0852 38.206 31.2869 38.544 31.429C38.8821 31.571 39.2685 31.642 39.7031 31.642C40.1719 31.642 40.5852 31.5625 40.9432 31.4034C41.3011 31.2415 41.581 31.017 41.7827 30.7301C41.9844 30.4432 42.0852 30.1094 42.0852 29.7287C42.0852 29.4219 42.0128 29.1591 41.8679 28.9403C41.723 28.7216 41.5085 28.5327 41.2244 28.3736C40.9432 28.2145 40.5938 28.0724 40.1761 27.9474L39.1577 27.6406C38.4759 27.4332 37.9545 27.1506 37.5938 26.7926C37.2358 26.4347 37.0568 25.9886 37.0568 25.4545C37.0568 25.0057 37.1761 24.608 37.4148 24.2614C37.6534 23.9119 37.9773 23.6378 38.3864 23.4389C38.7983 23.2401 39.2628 23.1406 39.7798 23.1406C40.2997 23.1406 40.7585 23.2415 41.1562 23.4432C41.554 23.642 41.8693 23.9162 42.1023 24.2656C42.3352 24.6122 42.4645 25.0085 42.4901 25.4545H41.9659ZM44.7145 32V23.2727H49.5724V23.767H45.2472V27.3849H49.3125V27.8793H45.2472V31.5057H49.6747V32H44.7145Z" fill="#0000FF"/>
<path d="M25.571 23.2727H26.892V29.0128C26.892 29.6236 26.7486 30.1648 26.4616 30.6364C26.1747 31.1051 25.7713 31.4744 25.2514 31.7443C24.7315 32.0114 24.1222 32.1449 23.4233 32.1449C22.7273 32.1449 22.1193 32.0114 21.5994 31.7443C21.0795 31.4744 20.6761 31.1051 20.3892 30.6364C20.1023 30.1648 19.9588 29.6236 19.9588 29.0128V23.2727H21.2756V28.9062C21.2756 29.3011 21.3622 29.652 21.5355 29.9588C21.7116 30.2656 21.9602 30.5071 22.2812 30.6832C22.6023 30.8565 22.983 30.9432 23.4233 30.9432C23.8665 30.9432 24.2486 30.8565 24.5696 30.6832C24.8935 30.5071 25.1406 30.2656 25.3111 29.9588C25.4844 29.652 25.571 29.3011 25.571 28.9062V23.2727ZM28.8065 32V23.2727H31.9173C32.5934 23.2727 33.1545 23.3892 33.6005 23.6222C34.0494 23.8551 34.3846 24.1776 34.6062 24.5895C34.8278 24.9986 34.9386 25.4716 34.9386 26.0085C34.9386 26.5426 34.8263 27.0128 34.6019 27.419C34.3803 27.8224 34.0451 28.1364 33.5962 28.3608C33.1502 28.5852 32.5891 28.6974 31.913 28.6974H29.5565V27.5639H31.7937C32.2198 27.5639 32.5664 27.5028 32.8335 27.3807C33.1033 27.2585 33.3008 27.081 33.4258 26.848C33.5508 26.6151 33.6133 26.3352 33.6133 26.0085C33.6133 25.679 33.5494 25.3935 33.4215 25.152C33.2965 24.9105 33.0991 24.7259 32.8292 24.598C32.5621 24.4673 32.2113 24.402 31.7766 24.402H30.1232V32H28.8065ZM33.1147 28.0625L35.271 32H33.771L31.6573 28.0625H33.1147Z" fill="#0000FF"/>
<path d="M8.71023 26.5455H6.30682C6.28977 26.3466 6.24432 26.1662 6.17045 26.0043C6.09943 25.8423 6 25.7031 5.87216 25.5866C5.74716 25.4673 5.59517 25.3764 5.41619 25.3139C5.23722 25.2486 5.03409 25.2159 4.80682 25.2159C4.40909 25.2159 4.07244 25.3125 3.79688 25.5057C3.52415 25.6989 3.31676 25.9759 3.17472 26.3366C3.03551 26.6974 2.96591 27.1307 2.96591 27.6364C2.96591 28.1705 3.03693 28.6179 3.17898 28.9787C3.32386 29.3366 3.53267 29.6065 3.8054 29.7884C4.07813 29.9673 4.40625 30.0568 4.78977 30.0568C5.00852 30.0568 5.20455 30.0298 5.37784 29.9759C5.55114 29.919 5.7017 29.8381 5.82955 29.733C5.95739 29.6278 6.06108 29.5014 6.14062 29.3537C6.22301 29.2031 6.27841 29.0341 6.30682 28.8466L8.71023 28.8636C8.68182 29.233 8.57813 29.6094 8.39915 29.9929C8.22017 30.3736 7.96591 30.7259 7.63636 31.0497C7.30966 31.3707 6.90483 31.6293 6.42188 31.8253C5.93892 32.0213 5.37784 32.1193 4.73864 32.1193C3.9375 32.1193 3.21875 31.9474 2.58239 31.6037C1.94886 31.2599 1.44744 30.7543 1.07812 30.0866C0.711648 29.419 0.528409 28.6023 0.528409 27.6364C0.528409 26.6648 0.715909 25.8466 1.09091 25.1818C1.46591 24.5142 1.97159 24.0099 2.60795 23.669C3.24432 23.3253 3.95455 23.1534 4.73864 23.1534C5.28977 23.1534 5.79688 23.2287 6.25994 23.3793C6.72301 23.5298 7.12926 23.75 7.47869 24.0398C7.82813 24.3267 8.10938 24.6804 8.32244 25.1009C8.53551 25.5213 8.66477 26.0028 8.71023 26.5455ZM18.2397 27.6364C18.2397 28.608 18.0508 29.4276 17.6729 30.0952C17.2951 30.7599 16.7852 31.2642 16.1431 31.608C15.5011 31.9489 14.7852 32.1193 13.9954 32.1193C13.1999 32.1193 12.4812 31.9474 11.8391 31.6037C11.1999 31.2571 10.6914 30.7514 10.3136 30.0866C9.93857 29.419 9.75107 28.6023 9.75107 27.6364C9.75107 26.6648 9.93857 25.8466 10.3136 25.1818C10.6914 24.5142 11.1999 24.0099 11.8391 23.669C12.4812 23.3253 13.1999 23.1534 13.9954 23.1534C14.7852 23.1534 15.5011 23.3253 16.1431 23.669C16.7852 24.0099 17.2951 24.5142 17.6729 25.1818C18.0508 25.8466 18.2397 26.6648 18.2397 27.6364ZM15.8022 27.6364C15.8022 27.1136 15.7326 26.6733 15.5934 26.3153C15.457 25.9545 15.2539 25.6818 14.984 25.4972C14.717 25.3097 14.3874 25.2159 13.9954 25.2159C13.6033 25.2159 13.2724 25.3097 13.0025 25.4972C12.7354 25.6818 12.5323 25.9545 12.3931 26.3153C12.2567 26.6733 12.1886 27.1136 12.1886 27.6364C12.1886 28.1591 12.2567 28.6009 12.3931 28.9616C12.5323 29.3196 12.7354 29.5923 13.0025 29.7798C13.2724 29.9645 13.6033 30.0568 13.9954 30.0568C14.3874 30.0568 14.717 29.9645 14.984 29.7798C15.2539 29.5923 15.457 29.3196 15.5934 28.9616C15.7326 28.6009 15.8022 28.1591 15.8022 27.6364Z" fill="#0000FF"/>
<path d="M24.017 16.6364C24.017 17.608 23.8281 18.4276 23.4503 19.0952C23.0724 19.7599 22.5625 20.2642 21.9205 20.608C21.2784 20.9489 20.5625 21.1193 19.7727 21.1193C18.9773 21.1193 18.2585 20.9474 17.6165 20.6037C16.9773 20.2571 16.4688 19.7514 16.0909 19.0866C15.7159 18.419 15.5284 17.6023 15.5284 16.6364C15.5284 15.6648 15.7159 14.8466 16.0909 14.1818C16.4688 13.5142 16.9773 13.0099 17.6165 12.669C18.2585 12.3253 18.9773 12.1534 19.7727 12.1534C20.5625 12.1534 21.2784 12.3253 21.9205 12.669C22.5625 13.0099 23.0724 13.5142 23.4503 14.1818C23.8281 14.8466 24.017 15.6648 24.017 16.6364ZM21.5795 16.6364C21.5795 16.1136 21.5099 15.6733 21.3707 15.3153C21.2344 14.9545 21.0313 14.6818 20.7614 14.4972C20.4943 14.3097 20.1648 14.2159 19.7727 14.2159C19.3807 14.2159 19.0497 14.3097 18.7798 14.4972C18.5128 14.6818 18.3097 14.9545 18.1705 15.3153C18.0341 15.6733 17.9659 16.1136 17.9659 16.6364C17.9659 17.1591 18.0341 17.6009 18.1705 17.9616C18.3097 18.3196 18.5128 18.5923 18.7798 18.7798C19.0497 18.9645 19.3807 19.0568 19.7727 19.0568C20.1648 19.0568 20.4943 18.9645 20.7614 18.7798C21.0313 18.5923 21.2344 18.3196 21.3707 17.9616C21.5099 17.6009 21.5795 17.1591 21.5795 16.6364ZM32.6644 12.2727V21H30.6871L27.5337 16.4148H27.4826V21H25.1133V12.2727H27.1246L30.2269 16.8409H30.2951V12.2727H32.6644Z" fill="#0000FF"/>
<path d="M34.5795 13.2102V12.2727H41.125V13.2102H38.3807V21H37.3239V13.2102H34.5795Z" fill="#0000FF"/>
</svg>
