<svg width="51" height="34" viewBox="0 0 51 34" fill="none" xmlns="http://www.w3.org/2000/svg">
<path d="M5.05682 9V0.272727H8.10795C8.71591 0.272727 9.21733 0.377841 9.61222 0.588068C10.0071 0.795454 10.3011 1.07528 10.4943 1.42756C10.6875 1.77699 10.7841 2.16477 10.7841 2.59091C10.7841 2.96591 10.7173 3.27557 10.5838 3.51989C10.4531 3.7642 10.2798 3.95739 10.0639 4.09943C9.85085 4.24148 9.61932 4.34659 9.36932 4.41477V4.5C9.63636 4.51705 9.90483 4.6108 10.1747 4.78125C10.4446 4.9517 10.6705 5.19602 10.8523 5.5142C11.0341 5.83239 11.125 6.22159 11.125 6.68182C11.125 7.11932 11.0256 7.51278 10.8267 7.86222C10.6278 8.21165 10.3139 8.48864 9.88494 8.69318C9.45597 8.89773 8.89773 9 8.21023 9H5.05682ZM6.11364 8.0625H8.21023C8.90057 8.0625 9.39063 7.92898 9.6804 7.66193C9.97301 7.39205 10.1193 7.06534 10.1193 6.68182C10.1193 6.38636 10.044 6.11364 9.89347 5.86364C9.7429 5.6108 9.52841 5.40909 9.25 5.25852C8.97159 5.10511 8.64205 5.02841 8.26136 5.02841H6.11364V8.0625ZM6.11364 4.10795H8.07386C8.39205 4.10795 8.67898 4.04545 8.93466 3.92045C9.19318 3.79545 9.39773 3.61932 9.5483 3.39205C9.7017 3.16477 9.77841 2.89773 9.77841 2.59091C9.77841 2.20739 9.64489 1.8821 9.37784 1.61506C9.1108 1.34517 8.6875 1.21023 8.10795 1.21023H6.11364V4.10795ZM12.8615 9V0.272727H15.8104C16.4922 0.272727 17.0518 0.389204 17.4893 0.622159C17.9268 0.852272 18.2507 1.16903 18.4609 1.57244C18.6712 1.97585 18.7763 2.43466 18.7763 2.94886C18.7763 3.46307 18.6712 3.91903 18.4609 4.31676C18.2507 4.71449 17.9283 5.02699 17.4936 5.25426C17.0589 5.47869 16.5036 5.59091 15.8274 5.59091H13.4411V4.63636H15.7933C16.2592 4.63636 16.6342 4.56818 16.9183 4.43182C17.2053 4.29545 17.4126 4.10227 17.5405 3.85227C17.6712 3.59943 17.7365 3.2983 17.7365 2.94886C17.7365 2.59943 17.6712 2.29403 17.5405 2.03267C17.4098 1.77131 17.201 1.5696 16.9141 1.42756C16.6271 1.28267 16.2479 1.21023 15.7763 1.21023H13.9183V9H12.8615ZM16.9695 5.07955L19.1172 9H17.8899L15.7763 5.07955H16.9695ZM20.8952 9H19.7873L22.9918 0.272727H24.0827L27.2873 9H26.1793L23.5714 1.65341H23.5032L20.8952 9ZM21.3043 5.59091H25.7702V6.52841H21.3043V5.59091ZM35.5671 0.272727V9H34.5444L29.7887 2.14773H29.7035V9H28.6467V0.272727H29.6694L34.4421 7.14205H34.5273V0.272727H35.5671ZM40.375 9H37.6818V0.272727H40.4943C41.3409 0.272727 42.0653 0.447443 42.6676 0.796875C43.2699 1.14347 43.7315 1.64205 44.0526 2.29261C44.3736 2.94034 44.5341 3.71591 44.5341 4.61932C44.5341 5.52841 44.3722 6.31108 44.0483 6.96733C43.7244 7.62074 43.2528 8.12358 42.6335 8.47585C42.0142 8.82528 41.2614 9 40.375 9ZM38.7386 8.0625H40.3068C41.0284 8.0625 41.6264 7.9233 42.1009 7.64489C42.5753 7.36648 42.929 6.97017 43.1619 6.45597C43.3949 5.94176 43.5114 5.32955 43.5114 4.61932C43.5114 3.91477 43.3963 3.30824 43.1662 2.79972C42.9361 2.28835 42.5923 1.89631 42.1349 1.62358C41.6776 1.34801 41.108 1.21023 40.4261 1.21023H38.7386V8.0625Z" fill="#0000FF"/>
<path d="M8.5625 21V12.2727H14.6989V14.1818H10.9318V15.6818H14.3239V17.5909H10.9318V21H8.5625ZM24.0249 16.6364C24.0249 17.608 23.8359 18.4276 23.4581 19.0952C23.0803 19.7599 22.5703 20.2642 21.9283 20.608C21.2862 20.9489 20.5703 21.1193 19.7805 21.1193C18.9851 21.1193 18.2663 20.9474 17.6243 20.6037C16.9851 20.2571 16.4766 19.7514 16.0987 19.0866C15.7237 18.419 15.5362 17.6023 15.5362 16.6364C15.5362 15.6648 15.7237 14.8466 16.0987 14.1818C16.4766 13.5142 16.9851 13.0099 17.6243 12.669C18.2663 12.3253 18.9851 12.1534 19.7805 12.1534C20.5703 12.1534 21.2862 12.3253 21.9283 12.669C22.5703 13.0099 23.0803 13.5142 23.4581 14.1818C23.8359 14.8466 24.0249 15.6648 24.0249 16.6364ZM21.5874 16.6364C21.5874 16.1136 21.5178 15.6733 21.3786 15.3153C21.2422 14.9545 21.0391 14.6818 20.7692 14.4972C20.5021 14.3097 20.1726 14.2159 19.7805 14.2159C19.3885 14.2159 19.0575 14.3097 18.7876 14.4972C18.5206 14.6818 18.3175 14.9545 18.1783 15.3153C18.0419 15.6733 17.9737 16.1136 17.9737 16.6364C17.9737 17.1591 18.0419 17.6009 18.1783 17.9616C18.3175 18.3196 18.5206 18.5923 18.7876 18.7798C19.0575 18.9645 19.3885 19.0568 19.7805 19.0568C20.1726 19.0568 20.5021 18.9645 20.7692 18.7798C21.0391 18.5923 21.2422 18.3196 21.3786 17.9616C21.5178 17.6009 21.5874 17.1591 21.5874 16.6364ZM32.6722 12.2727V21H30.695L27.5415 16.4148H27.4904V21H25.1211V12.2727H27.1325L30.2347 16.8409H30.3029V12.2727H32.6722ZM33.5543 14.1818V12.2727H41.1396V14.1818H38.5146V21H36.1793V14.1818H33.5543Z" fill="#0000FF"/>
<path d="M8.07955 27H7.02273C6.96023 26.696 6.85085 26.429 6.6946 26.1989C6.54119 25.9688 6.35369 25.7756 6.1321 25.6193C5.91335 25.4602 5.67045 25.3409 5.40341 25.2614C5.13636 25.1818 4.85795 25.142 4.56818 25.142C4.03977 25.142 3.56108 25.2756 3.1321 25.5426C2.70597 25.8097 2.36648 26.2031 2.11364 26.723C1.86364 27.2429 1.73864 27.8807 1.73864 28.6364C1.73864 29.392 1.86364 30.0298 2.11364 30.5497C2.36648 31.0696 2.70597 31.4631 3.1321 31.7301C3.56108 31.9972 4.03977 32.1307 4.56818 32.1307C4.85795 32.1307 5.13636 32.0909 5.40341 32.0114C5.67045 31.9318 5.91335 31.8139 6.1321 31.6577C6.35369 31.4986 6.54119 31.304 6.6946 31.0739C6.85085 30.8409 6.96023 30.5739 7.02273 30.2727H8.07955C8 30.7187 7.85511 31.1179 7.64489 31.4702C7.43466 31.8224 7.1733 32.1222 6.8608 32.3693C6.5483 32.6136 6.19744 32.7997 5.80824 32.9276C5.42188 33.0554 5.00852 33.1193 4.56818 33.1193C3.82386 33.1193 3.16193 32.9375 2.58239 32.5739C2.00284 32.2102 1.54688 31.6932 1.21449 31.0227C0.882102 30.3523 0.715909 29.5568 0.715909 28.6364C0.715909 27.7159 0.882102 26.9205 1.21449 26.25C1.54688 25.5795 2.00284 25.0625 2.58239 24.6989C3.16193 24.3352 3.82386 24.1534 4.56818 24.1534C5.00852 24.1534 5.42188 24.2173 5.80824 24.3452C6.19744 24.473 6.5483 24.6605 6.8608 24.9077C7.1733 25.152 7.43466 25.4503 7.64489 25.8026C7.85511 26.152 8 26.5511 8.07955 27ZM17.1509 28.6364C17.1509 29.5568 16.9847 30.3523 16.6523 31.0227C16.32 31.6932 15.864 32.2102 15.2844 32.5739C14.7049 32.9375 14.043 33.1193 13.2987 33.1193C12.5543 33.1193 11.8924 32.9375 11.3129 32.5739C10.7333 32.2102 10.2773 31.6932 9.94496 31.0227C9.61257 30.3523 9.44638 29.5568 9.44638 28.6364C9.44638 27.7159 9.61257 26.9205 9.94496 26.25C10.2773 25.5795 10.7333 25.0625 11.3129 24.6989C11.8924 24.3352 12.5543 24.1534 13.2987 24.1534C14.043 24.1534 14.7049 24.3352 15.2844 24.6989C15.864 25.0625 16.32 25.5795 16.6523 26.25C16.9847 26.9205 17.1509 27.7159 17.1509 28.6364ZM16.1282 28.6364C16.1282 27.8807 16.0018 27.2429 15.7489 26.723C15.4989 26.2031 15.1594 25.8097 14.7305 25.5426C14.3043 25.2756 13.8271 25.142 13.2987 25.142C12.7702 25.142 12.2915 25.2756 11.8626 25.5426C11.4364 25.8097 11.0969 26.2031 10.8441 26.723C10.5941 27.2429 10.4691 27.8807 10.4691 28.6364C10.4691 29.392 10.5941 30.0298 10.8441 30.5497C11.0969 31.0696 11.4364 31.4631 11.8626 31.7301C12.2915 31.9972 12.7702 32.1307 13.2987 32.1307C13.8271 32.1307 14.3043 31.9972 14.7305 31.7301C15.1594 31.4631 15.4989 31.0696 15.7489 30.5497C16.0018 30.0298 16.1282 29.392 16.1282 28.6364ZM24.6552 24.2727H25.712V30.0511C25.712 30.6477 25.5714 31.1804 25.2901 31.6491C25.0117 32.1151 24.6183 32.483 24.1097 32.7528C23.6012 33.0199 23.0046 33.1534 22.32 33.1534C21.6353 33.1534 21.0387 33.0199 20.5302 32.7528C20.0217 32.483 19.6268 32.1151 19.3455 31.6491C19.0671 31.1804 18.9279 30.6477 18.9279 30.0511V24.2727H19.9847V29.9659C19.9847 30.392 20.0785 30.7713 20.266 31.1037C20.4535 31.4332 20.7205 31.6932 21.0671 31.8835C21.4165 32.071 21.8342 32.1648 22.32 32.1648C22.8058 32.1648 23.2234 32.071 23.5728 31.8835C23.9222 31.6932 24.1893 31.4332 24.3739 31.1037C24.5614 30.7713 24.6552 30.392 24.6552 29.9659V24.2727ZM27.8224 33V24.2727H30.7713C31.4531 24.2727 32.0128 24.3892 32.4503 24.6222C32.8878 24.8523 33.2116 25.169 33.4219 25.5724C33.6321 25.9759 33.7372 26.4347 33.7372 26.9489C33.7372 27.4631 33.6321 27.919 33.4219 28.3168C33.2116 28.7145 32.8892 29.027 32.4545 29.2543C32.0199 29.4787 31.4645 29.5909 30.7884 29.5909H28.402V28.6364H30.7543C31.2202 28.6364 31.5952 28.5682 31.8793 28.4318C32.1662 28.2955 32.3736 28.1023 32.5014 27.8523C32.6321 27.5994 32.6974 27.2983 32.6974 26.9489C32.6974 26.5994 32.6321 26.294 32.5014 26.0327C32.3707 25.7713 32.1619 25.5696 31.875 25.4276C31.5881 25.2827 31.2088 25.2102 30.7372 25.2102H28.8793V33H27.8224ZM31.9304 29.0795L34.0781 33H32.8509L30.7372 29.0795H31.9304ZM40.271 26.4545C40.2198 26.0227 40.0124 25.6875 39.6488 25.4489C39.2852 25.2102 38.8391 25.0909 38.3107 25.0909C37.9244 25.0909 37.5863 25.1534 37.2965 25.2784C37.0096 25.4034 36.7852 25.5753 36.6232 25.794C36.4641 26.0128 36.3846 26.2614 36.3846 26.5398C36.3846 26.7727 36.44 26.973 36.5508 27.1406C36.6644 27.3054 36.8093 27.4432 36.9854 27.554C37.1616 27.6619 37.3462 27.7514 37.5394 27.8224C37.7326 27.8906 37.9102 27.946 38.0721 27.9886L38.9585 28.2273C39.1857 28.2869 39.4386 28.3693 39.717 28.4744C39.9982 28.5795 40.2667 28.723 40.5224 28.9048C40.7809 29.0838 40.994 29.3139 41.1616 29.5952C41.3292 29.8764 41.413 30.2216 41.413 30.6307C41.413 31.1023 41.2894 31.5284 41.0423 31.9091C40.7979 32.2898 40.44 32.5923 39.9684 32.8168C39.4996 33.0412 38.93 33.1534 38.2596 33.1534C37.6346 33.1534 37.0934 33.0526 36.636 32.8509C36.1815 32.6491 35.8235 32.3679 35.5621 32.0071C35.3036 31.6463 35.1573 31.2273 35.1232 30.75H36.2141C36.2425 31.0795 36.3533 31.3523 36.5465 31.5682C36.7425 31.7812 36.9897 31.9403 37.288 32.0455C37.5891 32.1477 37.913 32.1989 38.2596 32.1989C38.663 32.1989 39.0252 32.1335 39.3462 32.0028C39.6673 31.8693 39.9215 31.6847 40.109 31.4489C40.2965 31.2102 40.3903 30.9318 40.3903 30.6136C40.3903 30.3239 40.3093 30.0881 40.1474 29.9062C39.9854 29.7244 39.7724 29.5767 39.5082 29.4631C39.244 29.3494 38.9585 29.25 38.6516 29.1648L37.5778 28.858C36.896 28.6619 36.3562 28.3821 35.9585 28.0185C35.5607 27.6548 35.3619 27.179 35.3619 26.5909C35.3619 26.1023 35.494 25.6761 35.7582 25.3125C36.0252 24.946 36.3832 24.6619 36.832 24.4602C37.2837 24.2557 37.788 24.1534 38.3448 24.1534C38.9073 24.1534 39.4073 24.2543 39.8448 24.456C40.2823 24.6548 40.6289 24.9276 40.8846 25.2741C41.1431 25.6207 41.2795 26.0142 41.2937 26.4545H40.271ZM43.1506 33V24.2727H48.4176V25.2102H44.2074V28.1591H48.1449V29.0966H44.2074V32.0625H48.4858V33H43.1506Z" fill="#0000FF"/>
<path d="M50.4434 16.5L49 15.0566L47.5566 16.5L49 17.9434L50.4434 16.5ZM1 16.25C0.861929 16.25 0.75 16.3619 0.75 16.5C0.75 16.6381 0.861929 16.75 1 16.75V16.25ZM49 16.25L1 16.25V16.75L49 16.75V16.25Z" fill="#2A2A2A"/>
</svg>
