<svg width="64" height="67" viewBox="0 0 64 67" fill="none" xmlns="http://www.w3.org/2000/svg">
<rect width="64" height="67" fill="#D9D9D9"/>
<path d="M18.815 14.095V12.095H16.815V14.095H18.815ZM18.815 16.295H16.815V18.0955L18.6056 18.284L18.815 16.295ZM21.95 16.625L23.2214 15.0811L22.7573 14.6989L22.1594 14.636L21.95 16.625ZM22.885 17.395H24.885V16.4512L24.1564 15.8511L22.885 17.395ZM22.885 47.7L24.1564 49.2439L24.885 48.6438V47.7H22.885ZM21.95 48.47L22.1248 50.4623L22.7426 50.4082L23.2214 50.0139L21.95 48.47ZM18.815 48.745L18.6402 46.7527L16.815 46.9128V48.745H18.815ZM18.815 51H16.815V53H18.815V51ZM37.46 31.42L36.9372 29.4895L37.4269 33.4197L37.46 31.42ZM27.835 30.815H25.835V32.6671L27.6816 32.8091L27.835 30.815ZM27.835 16.68L27.7481 14.6819L25.835 14.7651V16.68H27.835ZM27.835 48.25H25.835V50.0903L27.6689 50.2431L27.835 48.25ZM27.835 33.565L27.6309 31.5754L25.835 31.7596V33.565H27.835ZM16.815 14.095V16.295H20.815V14.095H16.815ZM18.6056 18.284L21.7406 18.614L22.1594 14.636L19.0244 14.306L18.6056 18.284ZM20.6786 18.1689L21.6136 18.9389L24.1564 15.8511L23.2214 15.0811L20.6786 18.1689ZM20.885 17.395V47.7H24.885V17.395H20.885ZM21.6136 46.1561L20.6786 46.9261L23.2214 50.0139L24.1564 49.2439L21.6136 46.1561ZM21.7752 46.4777L18.6402 46.7527L18.9898 50.7373L22.1248 50.4623L21.7752 46.4777ZM16.815 48.745V51H20.815V48.745H16.815ZM18.815 53H33.335V49H18.815V53ZM33.335 53C38.2281 53 42.2973 51.9631 45.193 49.8057C48.1687 47.5887 49.69 44.3447 49.69 40.495H45.69C45.69 43.1903 44.6813 45.1988 42.8032 46.5981C40.8452 48.0569 37.7369 49 33.335 49V53ZM49.69 40.495C49.69 37.2014 48.6452 34.3632 46.4023 32.3616C44.1996 30.3958 41.112 29.4801 37.4931 29.4203L37.4269 33.4197C40.463 33.4699 42.4905 34.2317 43.7389 35.3459C44.9473 36.4243 45.69 38.0686 45.69 40.495H49.69ZM37.9828 33.3505C40.8352 32.5779 43.2059 31.379 44.8768 29.622C46.5906 27.8199 47.435 25.5683 47.435 23.005H43.435C43.435 24.6217 42.9319 25.8626 41.9782 26.8655C40.9816 27.9135 39.3648 28.8321 36.9372 29.4895L37.9828 33.3505ZM47.435 23.005C47.435 19.4368 46.1746 16.5319 43.4382 14.6209C40.8438 12.809 37.2013 12.095 32.84 12.095V16.095C36.8937 16.095 39.5487 16.7835 41.148 17.9004C42.6054 18.9181 43.435 20.4682 43.435 23.005H47.435ZM32.84 12.095H18.815V16.095H32.84V12.095ZM29.835 30.815V16.68H25.835V30.815H29.835ZM27.9219 18.6781C29.3936 18.6141 30.1726 18.515 30.97 18.515V14.515C30.1174 14.515 28.8064 14.6359 27.7481 14.6819L27.9219 18.6781ZM30.97 18.515C33.8483 18.515 35.5753 19.0459 36.5542 19.7948C37.4211 20.4579 37.99 21.5181 37.99 23.445H41.99C41.99 20.6419 41.1014 18.237 38.9845 16.6177C36.9797 15.0841 34.1967 14.515 30.97 14.515V18.515ZM37.99 23.445C37.99 25.4857 37.3467 26.6702 36.2913 27.437C35.1091 28.2959 33.0849 28.87 29.87 28.87V32.87C33.4201 32.87 36.4559 32.2616 38.6424 30.673C40.9558 28.9923 41.99 26.4643 41.99 23.445H37.99ZM29.87 28.87C29.202 28.87 28.6157 28.8691 27.9884 28.8209L27.6816 32.8091C28.4843 32.8709 29.218 32.87 29.87 32.87V28.87ZM29.835 48.25V33.565H25.835V48.25H29.835ZM28.0391 35.5546C30.1466 35.3384 31.833 35.235 33.225 35.235V31.235C31.647 31.235 29.8134 31.3516 27.6309 31.5754L28.0391 35.5546ZM33.225 35.235C36.0783 35.235 37.8041 35.798 38.7947 36.5986C39.698 37.3287 40.3 38.5127 40.3 40.605H44.3C44.3 37.6923 43.417 35.1913 41.309 33.4876C39.2884 31.8545 36.4767 31.235 33.225 31.235V35.235ZM40.3 40.605C40.3 42.9382 39.6148 44.1829 38.5167 44.9618C37.2605 45.8528 35.0847 46.415 31.52 46.415V50.415C35.3253 50.415 38.5395 49.8497 40.8308 48.2244C43.2802 46.4871 44.3 43.8268 44.3 40.605H40.3ZM31.52 46.415C30.429 46.415 29.2751 46.3631 28.0011 46.2569L27.6689 50.2431C29.0349 50.3569 30.301 50.415 31.52 50.415V46.415Z" fill="black"/>
</svg>
